custom-analysis
version=1
nRows=6
nColumns=98
inDegrees=no

This file contains tibia displacement and acting force.

Units are S.I. units (seconds, meters, Newtons, ...)
Angles are in degrees.

endheader
time	APT	SIT	knee_angle	aACL_R_force	pACL_R_force	aPCL_R_force	pPCL_R_force	aMCL_R_force	mMCL_R_force	pMCL_R_force	aLCL_R_force	mLCL_R_force	pLCL_R_force	aPCL_L_force	pPCL_L_force	aMCL_L_force	aLCL_L_force	aACL_R_length	pACL_R_length	aPCL_R_length	pPCL_R_length	aMCL_R_length	mMCL_R_length	pMCL_R_length	aLCL_R_length	mLCL_R_length	pLCL_R_length	aPCL_L_length	pPCL_L_length	aMCL_L_length	aLCL_L_length	aACL_R_strain	pACL_R_strain	aPCL_R_strain	pPCL_R_strain	aMCL_R_strain	mMCL_R_strain	pMCL_R_strain	aLCL_R_strain	mLCL_R_strain	pLCL_R_strain	aPCL_L_strain	pPCL_L_strain	aMCL_L_strain	aLCL_L_strain	femur_lat_meniscii_r.femur_lat_r.force.X	femur_lat_meniscii_r.femur_lat_r.force.Y	femur_lat_meniscii_r.femur_lat_r.force.Z	femur_lat_meniscii_r.femur_lat_r.torque.X	femur_lat_meniscii_r.femur_lat_r.torque.Y	femur_lat_meniscii_r.femur_lat_r.torque.Z	femur_lat_meniscii_r.meniscus_lat_r.force.X	femur_lat_meniscii_r.meniscus_lat_r.force.Y	femur_lat_meniscii_r.meniscus_lat_r.force.Z	femur_lat_meniscii_r.meniscus_lat_r.torque.X	femur_lat_meniscii_r.meniscus_lat_r.torque.Y	femur_lat_meniscii_r.meniscus_lat_r.torque.Z	femur_med_meniscii_r.femur_med_r.force.X	femur_med_meniscii_r.femur_med_r.force.Y	femur_med_meniscii_r.femur_med_r.force.Z	femur_med_meniscii_r.femur_med_r.torque.X	femur_med_meniscii_r.femur_med_r.torque.Y	femur_med_meniscii_r.femur_med_r.torque.Z	femur_med_meniscii_r.meniscus_med_r.force.X	femur_med_meniscii_r.meniscus_med_r.force.Y	femur_med_meniscii_r.meniscus_med_r.force.Z	femur_med_meniscii_r.meniscus_med_r.torque.X	femur_med_meniscii_r.meniscus_med_r.torque.Y	femur_med_meniscii_r.meniscus_med_r.torque.Z	femur_med_tibia_r.tibia_upper_r.force.X	femur_med_tibia_r.tibia_upper_r.force.Y	femur_med_tibia_r.tibia_upper_r.force.Z	femur_med_tibia_r.tibia_upper_r.torque.X	femur_med_tibia_r.tibia_upper_r.torque.Y	femur_med_tibia_r.tibia_upper_r.torque.Z	femur_med_tibia_r.femur_med_r.force.X	femur_med_tibia_r.femur_med_r.force.Y	femur_med_tibia_r.femur_med_r.force.Z	femur_med_tibia_r.femur_med_r.torque.X	femur_med_tibia_r.femur_med_r.torque.Y	femur_med_tibia_r.femur_med_r.torque.Z	femur_lat_tibia_r.tibia_upper_r.force.X	femur_lat_tibia_r.tibia_upper_r.force.Y	femur_lat_tibia_r.tibia_upper_r.force.Z	femur_lat_tibia_r.tibia_upper_r.torque.X	femur_lat_tibia_r.tibia_upper_r.torque.Y	femur_lat_tibia_r.tibia_upper_r.torque.Z	femur_lat_tibia_r.femur_lat_r.force.X	femur_lat_tibia_r.femur_lat_r.force.Y	femur_lat_tibia_r.femur_lat_r.force.Z	femur_lat_tibia_r.femur_lat_r.torque.X	femur_lat_tibia_r.femur_lat_r.torque.Y	femur_lat_tibia_r.femur_lat_r.torque.Z	femur_lat_meniscii_force_r	femur_med_meniscii_force_r	femur_lat_tibia_force_r	femur_med_tibia_force_r
      0.10912676	      0.00838998	      0.00767491	     28.65750927	      9.17206317	    -12.39983767	      0.00000000	     58.60232323	      0.00000000	      0.00000000	    -37.74501712	      0.00000000	      0.00000000	      0.00000000	      0.00000000	      0.00000000	      0.00000001	      0.00000000	      0.03250508	      0.02543159	      0.03102356	      0.03017521	      0.05729045	      0.05953368	      0.05880921	      0.05338301	      0.05029775	      0.04671756	      0.01525851	      0.01651186	      0.06550154	      0.04489616	      0.04836490	      0.01488074	     -0.00230716	      0.00961646	     -0.04558869	     -0.00434535	      0.00138275	     -0.04634372	     -0.10690700	     -0.10746747	      0.00000079	     -0.32847694	      0.00000060	     -0.00000086	     48.37613366	    260.59605111	     40.38405315	    -22.91235307	      1.25148764	     18.89371301	    -48.37613366	   -260.59605111	    -40.38405315	      8.02439913	     -1.76544217	      2.25711521	    -27.74344991	     56.82375653	      7.11145182	     -1.57280780	      0.65470534	    -11.35550946	     27.74344991	    -56.82375653	     -7.11145182	     -1.02577479	     -0.66853411	      1.32832447	    -94.53089478	   -506.34957975	    115.30295562	    -12.01467532	      2.39780318	      0.69759810	     94.53089478	    506.34957975	   -115.30295562	     57.16612216	     -1.42232269	     40.60351844	    -39.23853538	   -148.84286224	    -37.88307529	      5.08052825	     -1.41122963	      0.28171187	     39.23853538	    148.84286224	     37.88307529	    -19.24864987	      0.94209074	     16.23659642	    268.10711275	     63.63341155	    158.52125312	    527.84539266
      0.11017170	      0.00846799	      0.00781998	     29.13590282	      8.45745829	    -12.81576220	     26.92190159	     60.37600167	      0.00000000	      0.00000000	    -38.59935830	      0.00000000	      0.00000000	      0.00000000	      0.00000000	      0.00000000	      0.00000001	      0.00000000	      0.03248224	      0.02539489	      0.03110251	      0.03022815	      0.05733005	      0.05952729	      0.05875474	      0.05337433	      0.05025895	      0.04664930	      0.01525851	      0.01651186	      0.06550154	      0.04489616	      0.04762834	      0.01341616	      0.00023174	      0.01138746	     -0.04492897	     -0.00445213	      0.00045535	     -0.04649877	     -0.10759592	     -0.10877167	      0.00000079	     -0.32847694	      0.00000060	     -0.00000086	     46.79686860	    263.45849174	     39.61820158	    -22.66392238	      1.19797801	     18.18336330	    -46.79686860	   -263.45849174	    -39.61820158	      8.06366665	     -1.70535567	      2.43643187	    -26.79035643	     57.46657115	      7.85899200	     -1.86152550	      0.62832470	    -10.96574850	     26.79035643	    -57.46657115	     -7.85899200	     -1.02391085	     -0.65418638	      1.31874979	   -101.07411513	   -508.84271582	    115.08742050	    -12.04813705	      2.52102373	      0.59323971	    101.07411513	    508.84271582	   -115.08742050	     57.10215980	     -1.53850610	     43.31896545	    -38.02957240	   -141.01524568	    -35.37982874	      4.77912589	     -1.35943987	      0.28002080	     38.02957240	    141.01524568	     35.37982874	    -18.01285252	      0.91413875	     15.71969519	    270.49940052	     63.88969990	    150.27734417	    531.39627450
      0.11123213	      0.00855320	      0.00797406	     29.62514257	      7.71073794	    -13.28353127	     24.50882772	     56.42052342	      0.00000000	      0.00000000	      0.00000000	      0.00000000	      0.00000000	      0.00000000	      0.00000000	      0.00000000	      0.00000001	      0.00000000	      0.03245786	      0.02535664	      0.03117600	      0.03027446	      0.05736553	      0.05951544	      0.05869412	      0.05336005	      0.05021374	      0.04657394	      0.01525851	      0.01651186	      0.06550154	      0.04489616	      0.04684190	      0.01188978	      0.00259528	      0.01293705	     -0.04433782	     -0.00465036	     -0.00057685	     -0.04675379	     -0.10839871	     -0.11021142	      0.00000079	     -0.32847694	      0.00000060	     -0.00000086	     53.00928958	    277.16344588	     37.54214462	    -22.12230402	      1.32760348	     20.68578285	    -53.00928958	   -277.16344588	    -37.54214462	      8.33360296	     -1.83098943	      2.50014433	    -25.61036984	     58.97035243	      8.31357956	     -2.00696878	      0.59857396	    -10.47168285	     25.61036984	    -58.97035243	     -8.31357956	     -1.05139163	     -0.63400456	      1.30157919	   -114.30334403	   -534.55237448	    122.07502091	    -12.71518500	      2.81511996	      0.44534611	    114.30334403	    534.55237448	   -122.07502091	     60.47489802	     -1.76193355	     48.88561581	    -39.83384067	   -139.68660182	    -34.90189291	      4.71567798	     -1.40398878	      0.23695777	     39.83384067	    139.68660182	     34.90189291	    -17.77486755	      0.95523969	     16.46362386	    284.67345000	     64.82676233	    149.38950338	    560.10160350
      0.11229256	      0.00864717	      0.00813042	     30.11865363	      8.71982629	    -12.09734194	     25.70125827	     60.36004161	      0.00000000	      0.00000000	      0.00000000	      0.00000000	      0.00000000	      0.00000000	      0.00000000	      0.00000000	      0.00000001	      0.00000000	      0.03243628	      0.02532095	      0.03124616	      0.03031666	      0.05740117	      0.05950295	      0.05863295	      0.05334543	      0.05016790	      0.04649771	      0.01525851	      0.01651186	      0.06550154	      0.04489616	      0.04614612	      0.01046537	      0.00485148	      0.01434904	     -0.04374419	     -0.00485929	     -0.00161847	     -0.04701511	     -0.10921264	     -0.11166768	      0.00000079	     -0.32847694	      0.00000060	     -0.00000086	     55.14069093	    267.24216477	     36.42237635	    -21.39650686	      1.39357394	     21.60259783	    -55.14069093	   -267.24216477	    -36.42237635	      8.00585763	     -1.89430755	      2.34385682	    -22.72218867	     57.11421528	      9.47404816	     -2.53585712	      0.52443494	     -9.27840337	     22.72218867	    -57.11421528	     -9.47404816	     -0.97207698	     -0.58052221	      1.20323228	   -127.37088835	   -553.56675769	    126.01547452	    -13.16328466	      3.08517096	      0.27424632	    127.37088835	    553.56675769	   -126.01547452	     62.45035360	     -1.98928025	     54.35703171	    -40.18869489	   -137.66509867	    -34.57401859	      4.64398701	     -1.41592171	      0.24080929	     40.18869489	    137.66509867	     34.57401859	    -17.58721749	      0.96491696	     16.60013593	    275.29159073	     62.19396300	    147.52007778	    581.84138581
      0.11315614	      0.00872761	      0.00825687	     30.52328902	      8.87435255	    -11.72739044	     27.49769273	     64.86327414	      0.00000000	      0.00000000	      0.00000000	      0.00000000	      0.00000000	      0.00000000	      0.00000000	      0.00000000	      0.00000001	      0.00000000	      0.03242086	      0.02529392	      0.03130440	      0.03035155	      0.05743288	      0.05949496	      0.05858537	      0.05333612	      0.05013294	      0.04643790	      0.01525851	      0.01651186	      0.06550154	      0.04489616	      0.04564865	      0.00938687	      0.00672444	      0.01551628	     -0.04321581	     -0.00499283	     -0.00242860	     -0.04718131	     -0.10983341	     -0.11281038	      0.00000079	     -0.32847694	      0.00000060	     -0.00000086	     52.51466509	    261.47252111	     36.89881471	    -21.46184595	      1.32123970	     20.50344765	    -52.51466509	   -261.47252111	    -36.89881471	      7.86948425	     -1.82600989	      2.41820616	    -20.69847678	     56.02345956	     10.01989853	     -2.78772737	      0.47519993	     -8.44102578	     20.69847678	    -56.02345956	    -10.01989853	     -0.93283375	     -0.54331723	      1.13618327	   -134.02595437	   -553.36128411	    125.87881550	    -13.15545545	      3.21858971	      0.16084695	    134.02595437	    553.36128411	   -125.87881550	     62.37610565	     -2.11430268	     57.09989448	    -39.67242409	   -131.77870866	    -33.63352340	      4.45871464	     -1.39764351	      0.21835382	     39.67242409	    131.77870866	     33.63352340	    -17.05841703	      0.95370606	     16.38300652	    269.23445521	     60.55950238	    141.67125038	    583.10988964
      0.11401972	      0.00880871	      0.00838395	     30.92983781	      7.61262095	    -12.62478778	     29.40653490	     68.75630347	      0.00000000	      0.00000000	      0.00000000	      0.00000000	      0.00000000	      0.00000000	      0.00000000	      0.00000000	      0.00000001	      0.00000000	      0.03240509	      0.02526677	      0.03136343	      0.03038671	      0.05746535	      0.05948739	      0.05853823	      0.05332761	      0.05009850	      0.04637856	      0.01525851	      0.01651186	      0.06550154	      0.04489616	      0.04514008	      0.00830336	      0.00862271	      0.01669266	     -0.04267503	     -0.00511942	     -0.00323138	     -0.04733336	     -0.11044484	     -0.11394402	      0.00000079	     -0.32847694	      0.00000060	     -0.00000086	     50.87278809	    262.32092043	     34.58851814	    -20.50731378	      1.28278208	     19.78161144	    -50.87278809	   -262.32092043	    -34.58851814	      7.79214069	     -1.76315443	      2.56302964	    -19.47626962	     55.34469514	     10.55384194	     -3.02200179	      0.44678284	     -7.94109888	     19.47626962	    -55.34469514	    -10.55384194	     -0.90575586	     -0.52528536	      1.10440661	   -138.73470176	   -548.99323660	    124.90541169	    -13.04619614	      3.31584749	      0.08904517	    138.73470176	    548.99323660	   -124.90541169	     61.87320022	     -2.20827958	     59.01205416	    -37.80802031	   -125.04281273	    -31.90344839	      4.22320244	     -1.33624711	      0.23412019	     37.80802031	    125.04281273	     31.90344839	    -16.17870409	      0.91089497	     15.60119239	    269.43769493	     59.61328659	    134.47297660	    579.86399541
